<svg width="20" height="20" viewBox="0 0 24 24" fill="none" xmlns="http://www.w3.org/2000/svg">
<path d="M21 11.5C21.0033 12.8199 20.6543 14.119 19.9871 15.276C19.3199 16.433 18.355 17.4075 17.193 18.104C16.031 18.8005 14.7106 19.1962 13.351 19.252C11.9915 19.3079 10.6438 19.0227 9.427 18.42L3 21L5.38 14.58C4.77726 13.3639 4.49212 12.0165 4.54803 10.657C4.60394 9.29748 4.99963 7.97704 5.69603 6.815C6.39244 5.65296 7.36699 4.68811 8.52399 4.02091C9.681 3.3537 10.9801 3.00469 12.3 3H12.5C16.6421 3.22315 20.2232 6.50897 21.003 10.618C21.0379 10.913 21.0383 11.2104 21.004 11.505L21 11.5Z" stroke="#2563EB" stroke-width="2" stroke-linecap="round" stroke-linejoin="round"></path>
</svg>
